<?xml version="1.0" encoding="UTF-8"?>
<svg version="1.1" xmlns="http://www.w3.org/2000/svg" width="1024" height="1024">
<path d="M0 0 C337.92 0 675.84 0 1024 0 C1024 337.92 1024 675.84 1024 1024 C686.08 1024 348.16 1024 0 1024 C0 686.08 0 348.16 0 0 Z " fill="#020202" transform="translate(0,0)"/>
<path d="M0 0 C4.59957176 1.36115172 8.7371699 3.78892834 12.93603516 6.06591797 C13.95576416 6.60869385 14.97549316 7.15146973 16.02612305 7.71069336 C23.53587615 11.72376724 30.98697102 15.84110661 38.41259766 20.00732422 C42.87058254 22.50091964 47.36382597 24.92647541 51.86132812 27.34790039 C60.9338097 32.23280571 69.97212095 37.17160001 78.93603516 42.25341797 C80.26115112 42.99857666 80.26115112 42.99857666 81.61303711 43.75878906 C82.42732178 44.22365723 83.24160645 44.68852539 84.08056641 45.16748047 C84.79188721 45.5717627 85.50320801 45.97604492 86.23608398 46.39257812 C88.29812548 47.74273387 89.62820562 48.65101486 91.12353516 50.62841797 C91.50829601 53.73060131 91.50829601 53.73060131 91.52226257 57.63285828 C91.5289094 58.35004321 91.53555623 59.06722815 91.54240447 59.80614597 C91.56109466 62.21538962 91.55842523 64.62413927 91.5559082 67.03344727 C91.56492172 68.75801295 91.57524792 70.4825722 91.58679199 72.2071228 C91.61443646 76.89482896 91.62365659 81.58241382 91.62964606 86.27019095 C91.6390104 91.16697762 91.66521216 96.06367299 91.68965149 100.96040344 C91.7333737 110.23572732 91.76188549 119.51103354 91.78497487 128.78642923 C91.81199592 139.34499598 91.85590929 149.90347115 91.90126359 160.46197259 C91.9941918 182.18407183 92.06583506 203.90619848 92.12353516 225.62841797 C92.86425766 225.0187468 93.60498016 224.40907562 94.3681488 223.78092957 C95.34759964 222.97674088 96.32705048 222.17255219 97.33618164 221.34399414 C98.30377914 220.54869797 99.27137665 219.75340179 100.26829529 218.93400574 C104.1472261 215.80179414 108.14674768 212.8612166 112.18603516 209.94091797 C118.55898776 205.29021386 124.85189887 200.55817065 131.06103516 195.69091797 C139.044044 189.43657918 147.12790475 183.32764309 155.26025391 177.26904297 C158.45125252 174.88991769 161.6189614 172.48457871 164.76806641 170.05029297 C165.49429199 169.49293457 166.22051758 168.93557617 166.96875 168.36132812 C168.32220207 167.32120732 169.67056953 166.27442186 171.01269531 165.21972656 C177.18139715 160.50287217 177.18139715 160.50287217 181.12353516 160.62841797 C183.46384791 161.9071771 185.34693845 163.14169269 187.43603516 164.75341797 C188.04141113 165.20281738 188.64678711 165.6522168 189.27050781 166.11523438 C194.63994138 170.14608118 199.83514366 174.39824953 205.01708984 178.66577148 C209.6488778 182.47124936 214.37040131 186.12152493 219.18603516 189.69091797 C225.12349055 194.09311187 230.93184405 198.62591801 236.68579102 203.26489258 C243.33513795 208.62109132 250.10916196 213.80840235 256.90087891 218.98242188 C258.10384884 219.89920138 259.30616945 220.81683357 260.5078125 221.73535156 C261.6368282 222.59834393 262.76727883 223.45946352 263.89941406 224.31835938 C269.58250604 228.664676 269.58250604 228.664676 271.12353516 230.62841797 C271.00099602 234.0595138 270.74734466 236.61062351 268.93603516 239.56591797 C266.17050888 241.18708855 264.29577215 240.97248658 261.12353516 240.62841797 C258.81592372 239.16374232 256.92560978 237.76565665 254.87353516 236.00341797 C253.63480104 234.98545662 252.39517367 233.96858153 251.15478516 232.95263672 C250.17445313 232.13931885 250.17445313 232.13931885 249.17431641 231.30957031 C245.63126136 228.40510876 241.99825223 225.61726384 238.37353516 222.81591797 C236.83677521 221.62229578 235.30031969 220.42828153 233.76416016 219.23388672 C232.99652344 218.63753418 232.22888672 218.04118164 231.43798828 217.42675781 C227.6653788 214.49542433 223.89455364 211.56179769 220.12353516 208.62841797 C219.38498291 208.05406006 218.64643066 207.47970215 217.88549805 206.88793945 C214.07207051 203.9223093 210.25933552 200.95579531 206.44775391 197.98779297 C197.69445079 191.17315317 188.92670991 184.3785555 180.12353516 177.62841797 C176.47751592 179.2479087 173.57109028 181.48826921 170.43603516 183.94091797 C169.26572849 184.85141655 168.09514175 185.76155521 166.92431641 186.67138672 C166.30508301 187.15397949 165.68584961 187.63657227 165.04785156 188.13378906 C161.75393171 190.69219775 158.43822618 193.22201561 155.12353516 195.75341797 C154.06114624 196.56552734 154.06114624 196.56552734 152.97729492 197.39404297 C145.50904573 203.10171317 138.03186394 208.79765606 130.55322266 214.49169922 C126.86810618 217.29791341 123.18615052 220.10820872 119.50634766 222.92138672 C93.71888511 242.62841797 93.71888511 242.62841797 91.12353516 242.62841797 C91.12353516 273.64841797 91.12353516 304.66841797 91.12353516 336.62841797 C97.39353516 336.62841797 103.66353516 336.62841797 110.12353516 336.62841797 C110.09735107 334.65526611 110.07116699 332.68211426 110.04418945 330.64916992 C109.96350139 324.123356 109.90608387 317.5976603 109.8644743 311.07148457 C109.83840134 307.11532494 109.80304707 303.15970592 109.74633789 299.20385742 C109.69193336 295.38478995 109.6620973 291.56624177 109.64914894 287.74681664 C109.63992396 286.29112766 109.62190898 284.83546651 109.59488487 283.37999916 C109.55847773 281.33759218 109.55359399 279.29731894 109.5559082 277.25463867 C109.54480515 276.09325882 109.53370209 274.93187897 109.52226257 273.73530579 C110.30422291 269.69477058 112.0339941 268.24686088 115.12353516 265.62841797 C115.68145752 265.14042725 116.23937988 264.65243652 116.81420898 264.1496582 C117.31460693 263.74948486 117.81500488 263.34931152 118.33056641 262.93701172 C118.9087915 262.47351318 119.4870166 262.01001465 120.08276367 261.5324707 C120.69434326 261.0485083 121.30592285 260.5645459 121.93603516 260.06591797 C122.58693115 259.54779541 123.23782715 259.02967285 123.90844727 258.49584961 C129.26964667 254.25186036 134.72481431 250.14065225 140.21069336 246.05981445 C144.56807778 242.81360275 148.86429015 239.50214357 153.12353516 236.12841797 C158.28763972 232.05631878 163.46463204 228.0018758 168.68603516 224.00341797 C169.353125 223.48199219 170.02021484 222.96056641 170.70751953 222.42333984 C171.34109375 221.941875 171.97466797 221.46041016 172.62744141 220.96435547 C173.18246338 220.53687012 173.73748535 220.10938477 174.30932617 219.66894531 C176.6355779 218.3347393 178.44688771 217.83925686 181.12353516 217.62841797 C183.1496582 218.57788086 183.1496582 218.57788086 185.13525391 220.10107422 C186.25758423 220.94496704 186.25758423 220.94496704 187.40258789 221.8059082 C188.19737549 222.42796143 188.99216309 223.05001465 189.81103516 223.69091797 C190.64900635 224.32779541 191.48697754 224.96467285 192.3503418 225.62084961 C194.95442576 227.60708991 197.5407247 229.61461748 200.12353516 231.62841797 C201.63908168 232.80299839 203.15470324 233.97748202 204.67041016 235.15185547 C206.87206762 236.86143517 209.07124509 238.57392035 211.26513672 240.29345703 C216.96888089 244.76018454 222.75145985 249.11303393 228.56103516 253.44091797 C245.75828976 266.26317258 245.75828976 266.26317258 250.12353516 270.62841797 C250.21767203 272.68398458 250.24096513 274.74281978 250.23706055 276.80053711 C250.23720657 277.44441879 250.2373526 278.08830048 250.23750305 278.75169373 C250.23680401 280.88902099 250.22901206 283.0262621 250.22119141 285.16357422 C250.2193272 286.64188082 250.21790331 288.12018804 250.21690369 289.59849548 C250.21307874 293.49640599 250.20324867 297.39427946 250.19219971 301.29217529 C250.18198507 305.26688129 250.17740596 309.24159326 250.17236328 313.21630859 C250.16162638 321.02036197 250.14455025 328.82438479 250.12353516 336.62841797 C250.71600037 336.61953552 251.30846558 336.61065308 251.91888428 336.60150146 C258.08303178 336.51303501 264.24699908 336.45268671 270.41162109 336.40869141 C272.71247685 336.38857109 275.01328145 336.36127163 277.31396484 336.32666016 C280.62040833 336.27816185 283.92617601 336.25545319 287.23291016 336.23779297 C288.26220642 336.21714783 289.29150269 336.19650269 290.35198975 336.17523193 C297.45287182 336.17299881 297.45287182 336.17299881 300.77685547 338.43017578 C302.74074578 341.63591697 302.59156877 343.95101097 302.12353516 347.62841797 C300.58779195 349.6848821 299.70796429 350.51611758 297.16726983 351.00432214 C296.04217454 351.00496266 296.04217454 351.00496266 294.89435005 351.00561613 C293.59101451 351.0172663 293.59101451 351.0172663 292.26134896 351.02915183 C291.30427159 351.02241418 290.34719422 351.01567653 289.3611145 351.0087347 C287.83266895 351.01572458 287.83266895 351.01572458 286.27334571 351.02285567 C282.8250064 351.0349008 279.37705422 351.02537361 275.92871094 351.01609802 C273.44512757 351.02026677 270.96154611 351.02574174 268.47796822 351.03241783 C263.06070612 351.04390948 257.64356411 351.04598159 252.22629547 351.0398674 C244.1708354 351.03079978 236.11545579 351.03878939 228.06000191 351.05015864 C213.67536385 351.06985834 199.29076177 351.07216669 184.90611345 351.06696344 C172.31812101 351.06241214 159.73014285 351.0629981 147.14215088 351.06880379 C145.45579247 351.06956064 143.76943406 351.07031662 142.08307564 351.07107173 C139.54211664 351.07221688 137.00115764 351.07336676 134.46019865 351.07453098 C110.8266039 351.08524115 87.19301393 351.08995587 63.55941772 351.08206081 C62.66790955 351.08176364 61.77640138 351.08146647 60.85787781 351.08116029 C53.61747458 351.07871117 46.3770714 351.07609968 39.13666824 351.07347616 C10.88682526 351.06337144 -17.36295828 351.07173129 -45.61279297 351.0949707 C-77.32799399 351.12101844 -109.04315923 351.13389798 -140.75837135 351.12678295 C-144.13727442 351.12606685 -147.51617749 351.12539247 -150.89508057 351.12474251 C-151.72709539 351.1245727 -152.5591102 351.12440289 -153.41633759 351.12422793 C-165.99858022 351.12192096 -178.58078971 351.12992086 -191.1630249 351.14303398 C-205.46494801 351.15791248 -219.76679324 351.15883245 -234.06871462 351.14096307 C-242.0799202 351.13136673 -250.09094442 351.13290247 -258.10213806 351.15019776 C-264.07094106 351.16185443 -270.03951728 351.15278669 -276.00831437 351.13537539 C-278.43289107 351.1315788 -280.85748944 351.13464099 -283.28204703 351.14498704 C-286.55972236 351.15798676 -289.83641305 351.14672626 -293.11404419 351.12898922 C-294.07112156 351.13863973 -295.02819893 351.14829024 -296.01427865 351.1582332 C-302.34021714 351.08719138 -302.34021714 351.08719138 -304.99052238 348.81978852 C-306.35962085 345.43333602 -305.82297935 343.09897114 -304.87646484 339.62841797 C-301.98882488 336.8415908 -299.97682813 336.256573 -296.01611328 336.2878418 C-295.05541931 336.28806839 -294.09472534 336.28829498 -293.10491943 336.28852844 C-291.56097504 336.31175423 -291.56097504 336.31175423 -289.98583984 336.33544922 C-288.92608948 336.33969406 -287.86633911 336.3439389 -286.7744751 336.34831238 C-283.39154598 336.36509767 -280.00921375 336.40275042 -276.62646484 336.44091797 C-274.33220262 336.45596496 -272.03793105 336.46965334 -269.74365234 336.48193359 C-264.12105304 336.51500069 -258.49880159 336.56519893 -252.87646484 336.62841797 C-252.89867096 335.82155045 -252.92087708 335.01468292 -252.9437561 334.18336487 C-253.14481205 326.54870991 -253.29670826 318.91535215 -253.39458656 311.27873325 C-253.44660298 307.35320451 -253.51704133 303.42987696 -253.63085938 299.50561523 C-253.74018053 295.71230195 -253.79943777 291.92109341 -253.82523727 288.12632561 C-253.84360014 286.68485318 -253.87946396 285.24348571 -253.93376541 283.80291939 C-254.3404031 272.55957696 -254.3404031 272.55957696 -250.72251892 267.78703308 C-248.21046355 265.49877359 -245.68119517 263.54099845 -242.87646484 261.62841797 C-241.55587266 260.6064606 -240.23848679 259.58031536 -238.92724609 258.54638672 C-237.68432989 257.63189596 -236.43819345 256.7217667 -235.18896484 255.81591797 C-229.76586713 251.816827 -224.43287759 247.73492922 -219.18896484 243.50341797 C-213.54544294 238.95285495 -207.85543368 234.4788426 -202.07958984 230.09716797 C-199.81844773 228.37412749 -197.61264124 226.59802872 -195.42333984 224.78466797 C-194.8505127 224.31947754 -194.27768555 223.85428711 -193.6875 223.375 C-192.09839612 222.08227112 -190.52213742 220.77379799 -188.94677734 219.46435547 C-185.12114061 217.17676098 -183.2675395 216.87332627 -178.87646484 217.62841797 C-176.20312859 219.13724954 -173.98720952 221.04229868 -171.68896484 223.06591797 C-170.35555314 224.18586612 -169.02090588 225.3043448 -167.68505859 226.42138672 C-167.0339209 226.97358887 -166.3827832 227.52579102 -165.71191406 228.09472656 C-163.29203547 230.11676399 -160.7874046 232.00466047 -158.25146484 233.87841797 C-150.86817002 239.3637191 -143.56147569 244.94832101 -136.25146484 250.53076172 C-132.78099093 253.18049855 -129.30212576 255.81842004 -125.81396484 258.44482422 C-125.03174561 259.03618164 -124.24952637 259.62753906 -123.44360352 260.23681641 C-121.97521491 261.34665425 -120.50414906 262.45296161 -119.0300293 263.55517578 C-118.05102661 264.29719238 -118.05102661 264.29719238 -117.05224609 265.05419922 C-116.48417236 265.48128174 -115.91609863 265.90836426 -115.33081055 266.34838867 C-112.83701873 268.54327712 -111.91236104 270.20060833 -111.63595581 273.49479675 C-111.64039703 274.66061783 -111.64483826 275.8264389 -111.64941406 277.02758789 C-111.64912201 277.67176163 -111.64882996 278.31593536 -111.64852905 278.97962952 C-111.64992101 281.1061862 -111.66547546 283.23239133 -111.68115234 285.35888672 C-111.68488296 286.83433338 -111.6877297 288.30978252 -111.68972778 289.78523254 C-111.69736043 293.66672619 -111.71700567 297.54806993 -111.73913574 301.42950439 C-111.75960215 305.39097058 -111.7687312 309.35246101 -111.77880859 313.31396484 C-111.800252 321.08552544 -111.83543104 328.85693159 -111.87646484 336.62841797 C-105.93646484 336.62841797 -99.99646484 336.62841797 -93.87646484 336.62841797 C-93.75849126 324.64035304 -93.68728192 312.65448706 -93.69768238 300.66583252 C-93.70065751 295.09851141 -93.68339074 289.53280625 -93.61938477 283.96582031 C-93.55832897 278.58996791 -93.55107173 273.21645356 -93.58063316 267.84036255 C-93.58253227 265.79266118 -93.56525901 263.74484682 -93.5282383 261.69747925 C-92.93686955 250.51039804 -92.93686955 250.51039804 -97.2275238 240.68479919 C-100.02974239 238.62901572 -102.75671168 237.14264779 -105.87646484 235.62841797 C-107.65199483 234.34307646 -109.40494656 233.02534454 -111.12255859 231.66357422 C-111.97269531 231.01388672 -112.82283203 230.36419922 -113.69873047 229.69482422 C-114.56175781 229.03353516 -115.42478516 228.37224609 -116.31396484 227.69091797 C-118.16656878 226.27521223 -120.01943114 224.85984461 -121.87255859 223.44482422 C-122.74509277 222.77854004 -123.61762695 222.11225586 -124.51660156 221.42578125 C-127.29234013 219.31167124 -130.08080931 217.21610893 -132.87646484 215.12841797 C-139.23944932 210.37435957 -145.54689192 205.54789916 -151.86083984 200.72900391 C-158.15382497 195.93015067 -164.46922711 191.1627537 -170.81494141 186.43383789 C-171.71164551 185.7644519 -171.71164551 185.7644519 -172.62646484 185.08154297 C-173.18462891 184.66839844 -173.74279297 184.25525391 -174.31787109 183.82958984 C-175.78623803 182.69795367 -177.17883616 181.46991325 -178.56396484 180.23779297 C-180.67641981 178.3859287 -180.67641981 178.3859287 -182.80639648 178.8659668 C-185.06584695 179.69817151 -186.46987544 180.67321956 -188.31005859 182.21826172 C-188.95217285 182.75016113 -189.59428711 183.28206055 -190.25585938 183.83007812 C-190.93503418 184.40290527 -191.61420898 184.97573242 -192.31396484 185.56591797 C-193.75685243 186.76128502 -195.20087697 187.95528092 -196.64599609 189.14794922 C-197.36223145 189.74043457 -198.0784668 190.33291992 -198.81640625 190.94335938 C-202.69420517 194.11526837 -206.68727837 197.13198587 -210.66943359 200.17138672 C-215.86242307 204.1376103 -220.98267445 208.19721892 -226.11474609 212.24169922 C-227.85636273 213.61259479 -229.60034369 214.98041788 -231.34521484 216.34716797 C-238.79864093 222.18739826 -246.2114942 228.07626316 -253.59912109 233.99951172 C-254.15954102 234.44601074 -254.71996094 234.89250977 -255.29736328 235.35253906 C-256.74735885 236.5241032 -258.16711962 237.73283108 -259.58349609 238.94482422 C-262.81670396 241.31878093 -264.97137842 241.20694929 -268.87646484 240.62841797 C-271.62408111 238.4125984 -271.84165376 236.84836073 -272.39208984 233.37060547 C-271.74921352 228.70488186 -270.42703231 227.69969241 -266.84716797 224.89819336 C-266.13496094 224.37604248 -265.42275391 223.8538916 -264.68896484 223.31591797 C-263.96515625 222.75831787 -263.24134766 222.20071777 -262.49560547 221.6262207 C-261.01334634 220.48768562 -259.52387384 219.35848018 -258.02734375 218.23876953 C-256.06810348 216.77189679 -254.1302555 215.28242164 -252.20068359 213.77685547 C-243.28157478 206.82844013 -243.28157478 206.82844013 -240.74829102 205.57763672 C-238.16420402 204.13945648 -236.64402297 203.01945857 -234.87646484 200.62841797 C-233.85206935 195.24899477 -234.02040758 189.95843501 -234.18896484 184.50341797 C-234.24076359 182.30185092 -234.28057866 180.10234636 -234.29057312 177.900177 C-234.30168857 175.90802652 -234.35422318 173.91623474 -234.40893555 171.92480469 C-233.87646484 168.62841797 -233.87646484 168.62841797 -231.58032227 166.171875 C-227.93250473 164.08957229 -225.86603687 164.57456875 -221.87646484 165.62841797 C-219.43731992 168.06756289 -219.58983962 168.84288227 -219.46240234 172.19873047 C-219.42373047 173.09462891 -219.38505859 173.99052734 -219.34521484 174.91357422 C-219.31427734 175.85072266 -219.28333984 176.78787109 -219.25146484 177.75341797 C-219.21279297 178.69830078 -219.17412109 179.64318359 -219.13427734 180.61669922 C-219.03985138 182.95374172 -218.9542809 185.29077298 -218.87646484 187.62841797 C-218.02826172 186.96197266 -217.18005859 186.29552734 -216.30615234 185.60888672 C-215.74597412 185.16875244 -215.1857959 184.72861816 -214.60864258 184.27514648 C-213.35813176 183.29259053 -212.10764392 182.31000533 -210.85717773 181.32739258 C-207.57377333 178.74736965 -204.29000856 176.16780845 -201.00537109 173.58935547 C-200.3861377 173.10313721 -199.7669043 172.61691895 -199.12890625 172.1159668 C-197.94773414 171.18853855 -196.76642615 170.26128333 -195.58496094 169.33422852 C-193.10233975 167.38464718 -190.67767662 165.44622103 -188.34912109 163.31201172 C-185.87646484 161.62841797 -185.87646484 161.62841797 -183.11083984 160.99560547 C-178.20401433 161.95563655 -175.01663512 164.71780968 -171.12646484 167.75341797 C-170.29373047 168.38505859 -169.46099609 169.01669922 -168.60302734 169.66748047 C-166.01450832 171.63819586 -163.44335844 173.62963978 -160.87646484 175.62841797 C-160.10625 176.2262207 -159.33603516 176.82402344 -158.54248047 177.43994141 C-155.57358439 179.74606826 -152.60729727 182.05538255 -149.64892578 184.375 C-143.52409221 189.16678156 -137.27799878 193.77760527 -130.99951172 198.36523438 C-124.66327099 203.01050715 -118.44514983 207.79388786 -112.27685547 212.65966797 C-108.27796497 215.80409468 -104.22391283 218.85178006 -100.10498047 221.83789062 C-99.12323853 222.55014801 -98.14149658 223.2624054 -97.13000488 223.99624634 C-96.38633667 224.53486298 -95.64266846 225.07347961 -94.87646484 225.62841797 C-94.87499828 224.73627751 -94.87353172 223.84413706 -94.87202072 222.92496204 C-94.83498258 201.2255903 -94.77600764 179.52637513 -94.6925621 157.82713032 C-94.65273857 147.33356275 -94.62036292 136.84007055 -94.60546875 126.34643555 C-94.59246941 117.20106897 -94.56554874 108.05586798 -94.52185178 98.91059464 C-94.49919829 94.06740043 -94.48355649 89.22441073 -94.48458099 84.38115883 C-94.48532531 79.82318511 -94.4674666 75.26566415 -94.43529701 70.70780754 C-94.4267734 69.0344817 -94.42506474 67.36110522 -94.43066216 65.68776703 C-94.43728689 63.40311494 -94.41942049 61.11990981 -94.39544678 58.83540344 C-94.38991602 56.91761314 -94.38991602 56.91761314 -94.38427353 54.9610796 C-93.7863774 51.03718944 -92.63835233 49.4244639 -89.87646484 46.62841797 C-87.1887207 44.83007812 -87.1887207 44.83007812 -84.09130859 43.16748047 C-82.35651245 42.22461182 -82.35651245 42.22461182 -80.58666992 41.26269531 C-79.32915431 40.59283717 -78.07158452 39.92308073 -76.81396484 39.25341797 C-75.50693116 38.54707625 -74.20054384 37.83953731 -72.89477539 37.13085938 C-70.20619029 35.67236161 -67.51520823 34.21843067 -64.82275391 32.76708984 C-58.91133883 29.57268465 -53.05338346 26.28312118 -47.18896484 23.00341797 C-36.84964502 17.23997936 -26.45202385 11.59413407 -16.01049805 6.01855469 C-14.98657959 5.47086426 -13.96266113 4.92317383 -12.90771484 4.35888672 C-12.00601562 3.87830811 -11.10431641 3.39772949 -10.17529297 2.90258789 C-3.7257766 -0.67218122 -3.7257766 -0.67218122 0 0 Z " fill="#FBFBFB" transform="translate(513.87646484375,236.37158203125)"/>
<path d="M0 0 C4.83553645 2.34835861 9.55924461 4.86418432 14.265625 7.4609375 C15.32869873 8.04246582 16.39177246 8.62399414 17.48706055 9.22314453 C19.68691618 10.42680524 21.88572367 11.63238349 24.08349609 12.83984375 C26.98010983 14.42926998 29.88113917 16.01008972 32.78515625 17.5859375 C42.62604047 22.92813179 52.43803327 28.32225178 62.23178101 33.75030518 C63.45774814 34.42966212 64.68400335 35.10849948 65.91055298 35.7868042 C67.61972955 36.73241052 69.32747727 37.68059809 71.03515625 38.62890625 C72.02104736 39.17571045 73.00693848 39.72251465 74.02270508 40.28588867 C76.265625 41.5859375 76.265625 41.5859375 77.265625 42.5859375 C77.36240866 44.07679383 77.38934248 45.57223734 77.38867283 47.06623173 C77.39066388 48.04009014 77.39265493 49.01394856 77.39470631 50.01731783 C77.39179347 51.09997956 77.38888063 52.1826413 77.38587952 53.29811096 C77.38716115 55.00835926 77.38716115 55.00835926 77.38846868 56.75315803 C77.38983681 59.93195277 77.38668955 63.11070728 77.38169062 66.28949726 C77.37738926 69.71214289 77.37883232 73.13478651 77.3795929 76.55743408 C77.38011833 82.49207064 77.37696949 88.42669623 77.37135506 94.36133003 C77.3632427 102.94191074 77.36062511 111.52248613 77.35936707 120.10307025 C77.35717613 134.02306221 77.35051492 147.94304833 77.34106445 161.86303711 C77.33189141 175.38842744 77.32481005 188.91381618 77.32055664 202.43920898 C77.32029392 203.27231803 77.32003119 204.10542707 77.31976051 204.96378184 C77.31845551 209.14306708 77.31719179 213.32235232 77.31594861 217.50163758 C77.3055747 252.19640856 77.28768086 286.8911721 77.265625 321.5859375 C60.765625 321.5859375 44.265625 321.5859375 27.265625 321.5859375 C27.23984375 316.78417969 27.2140625 311.98242188 27.1875 307.03515625 C27.162337 303.99538906 27.13600868 300.95572191 27.10546875 297.91601562 C27.05709241 293.08992107 27.01306393 288.26405803 26.99462891 283.43774414 C26.97949817 279.54712596 26.9451179 275.65711286 26.89731598 271.76676369 C26.88246488 270.28164742 26.87458185 268.79644478 26.87374115 267.3112545 C26.87138069 265.23247955 26.84438138 263.15538953 26.81152344 261.0769043 C26.80264099 259.89331833 26.79375854 258.70973236 26.78460693 257.49028015 C26.52448262 254.52650934 26.52448262 254.52650934 24.52557373 252.70550537 C21.99208231 251.45042575 20.3775247 251.2005826 17.56054688 251.18188477 C16.63278442 251.16920059 15.70502197 251.15651642 14.74914551 251.14344788 C13.75427124 251.14638351 12.75939697 251.14931915 11.734375 251.15234375 C10.70630737 251.1471019 9.67823975 251.14186005 8.61901855 251.13645935 C6.44703067 251.13004048 4.27500801 251.13137438 2.10302734 251.13989258 C-1.22230795 251.1484066 -4.54592799 251.11963151 -7.87109375 251.08789062 C-9.98177032 251.08627864 -12.09244993 251.08685609 -14.203125 251.08984375 C-15.6954364 251.07299278 -15.6954364 251.07299278 -17.21789551 251.05580139 C-18.14565796 251.06518234 -19.07342041 251.07456329 -20.02929688 251.08422852 C-20.84329956 251.08439468 -21.65730225 251.08456085 -22.49597168 251.08473206 C-25.67640226 251.79686874 -26.81880653 252.97061776 -28.734375 255.5859375 C-29.35011512 258.64637129 -29.35011512 258.64637129 -29.28027344 262.09863281 C-29.29061111 262.74295258 -29.30094879 263.38727234 -29.31159973 264.05111694 C-29.34100393 266.17235461 -29.34252625 268.29263716 -29.34375 270.4140625 C-29.35873344 271.88810035 -29.37546095 273.36212143 -29.39385986 274.83612061 C-29.43752804 278.70931778 -29.457531 282.58228851 -29.47259521 286.45568848 C-29.49561181 291.10647244 -29.54804077 295.75700675 -29.59553528 300.40759277 C-29.66434015 307.46710618 -29.69579558 314.52590274 -29.734375 321.5859375 C-46.234375 321.5859375 -62.734375 321.5859375 -79.734375 321.5859375 C-79.91516196 286.1281727 -80.05841687 250.67054166 -80.14289764 215.21241074 C-80.1529035 211.02791823 -80.16325805 206.84342666 -80.17382812 202.65893555 C-80.17592661 201.82586558 -80.17802509 200.99279561 -80.18018717 200.13448109 C-80.21501426 186.63884039 -80.27809971 173.14347182 -80.35159737 159.64799265 C-80.42636412 145.80420356 -80.47083553 131.96055717 -80.48708296 118.11657447 C-80.49806965 109.57134497 -80.53278944 101.02688461 -80.59770674 92.48189183 C-80.63993884 86.62519966 -80.65278874 80.76890608 -80.64238602 74.91207264 C-80.63725218 71.53045555 -80.64955737 68.15127025 -80.6880188 64.76970482 C-80.72766608 61.1050956 -80.71831558 57.44381075 -80.69641113 53.77912903 C-80.71971386 52.70811866 -80.7430166 51.63710829 -80.76702547 50.53364307 C-80.65296183 43.50278344 -80.65296183 43.50278344 -77.99358845 40.84845006 C-75.95218599 39.55245578 -73.95060551 38.54509839 -71.734375 37.5859375 C-70.26218506 36.73334351 -70.26218506 36.73334351 -68.76025391 35.86352539 C-67.83647949 35.35039795 -66.91270508 34.83727051 -65.9609375 34.30859375 C-64.90173096 33.71965332 -63.84252441 33.13071289 -62.7512207 32.52392578 C-61.63191162 31.90501465 -60.51260254 31.28610352 -59.359375 30.6484375 C-58.1708166 29.9894214 -56.98225867 29.33040446 -55.79370117 28.67138672 C-46.49787574 23.5255292 -37.15751399 18.46437573 -27.77880859 13.47094727 C-23.05016416 10.94688833 -18.35781038 8.39997283 -13.76171875 5.640625 C-13.02719482 5.20411621 -12.2926709 4.76760742 -11.53588867 4.31787109 C-10.22178322 3.528751 -8.91736402 2.72312795 -7.6262207 1.89697266 C-4.86216456 0.24207005 -3.22434265 -0.4882576 0 0 Z " fill="#040404" transform="translate(513.734375,251.4140625)"/>
<path d="M0 0 C6.08166669 3.82919754 11.62754028 8.08180444 17.15234375 12.671875 C20.79737473 15.65190033 24.55686226 18.45483305 28.3359375 21.26171875 C33.255893 24.92390914 38.12400115 28.65463033 43 32.375 C44.8124466 33.75788249 46.62494371 35.14069879 48.4375 36.5234375 C49.21996094 37.12075684 50.00242187 37.71807617 50.80859375 38.33349609 C52.92793294 40.01481828 52.92793294 40.01481828 55.10858154 41.2328949 C57 43 57 43 57.48101807 45.67655945 C57.4676944 47.29205437 57.4676944 47.29205437 57.45410156 48.94018555 C57.45379944 50.16122482 57.45349731 51.3822641 57.45318604 52.64030457 C57.43254089 53.95912125 57.41189575 55.27793793 57.390625 56.63671875 C57.38316326 58.00005769 57.37747001 59.36340736 57.37347412 60.72676086 C57.35821209 64.31256804 57.31892672 67.8977256 57.2746582 71.48327637 C57.23371698 75.14305677 57.21524643 78.80294543 57.1953125 82.46289062 C57.154554 89.64250053 57.07626681 96.82032736 57 104 C46.11 104 35.22 104 24 104 C23.67 88.82 23.34 73.64 23 58 C18.62610212 55.81305106 15.40050781 55.69364763 10.65625 55.69921875 C9.85014282 55.69493362 9.04403564 55.6906485 8.21350098 55.68623352 C6.51229795 55.68050068 4.81107042 55.67998225 3.10986328 55.68432617 C0.50901507 55.68748904 -2.09069834 55.66400504 -4.69140625 55.63867188 C-6.34635273 55.63639904 -8.00130227 55.63569531 -9.65625 55.63671875 C-10.43238647 55.627509 -11.20852295 55.61829926 -12.00817871 55.60881042 C-16.36932868 55.64614738 -18.85482585 55.92696974 -22 59 C-22.61241165 61.10199932 -22.61241165 61.10199932 -22.54589844 63.47143555 C-22.56561707 64.37214279 -22.58533569 65.27285004 -22.60565186 66.20085144 C-22.60749481 67.65410576 -22.60749481 67.65410576 -22.609375 69.13671875 C-22.62591125 70.13129593 -22.64244751 71.12587311 -22.65948486 72.15058899 C-22.7080995 75.32962129 -22.72936594 78.5081748 -22.75 81.6875 C-22.77814837 83.84182114 -22.80807419 85.99611984 -22.83984375 88.15039062 C-22.91721184 93.43381688 -22.95760701 98.71571353 -23 104 C-33.89 104 -44.78 104 -56 104 C-56.29492041 96.36717879 -56.57489288 88.7552627 -56.72450256 81.12168121 C-56.79807165 77.56681236 -56.89605535 74.0167131 -57.05615234 70.46459961 C-58.14587568 45.64058381 -58.14587568 45.64058381 -53.07836914 39.83398438 C-49.71193263 36.87408035 -46.00970409 34.96588263 -42 33 C-39.76089578 31.37512703 -39.76089578 31.37512703 -37.94921875 29.7578125 C-37.40483154 29.31856445 -36.86044434 28.87931641 -36.29956055 28.42675781 C-35.76758057 27.99717773 -35.23560059 27.56759766 -34.6875 27.125 C-28.54152588 22.18333225 -22.29916885 17.37733495 -16.02246094 12.60327148 C-10.61300751 8.48456746 -5.27512709 4.29009107 0 0 Z " fill="#040303" transform="translate(331,469)"/>
<path d="M0 0 C0.47453613 0.35771484 0.94907227 0.71542969 1.43798828 1.08398438 C5.04453617 3.7965716 8.66159077 6.49290672 12.3046875 9.15625 C21.14506602 15.62056602 29.899517 22.17210139 38.50927734 28.94140625 C39.18555176 29.4725 39.86182617 30.00359375 40.55859375 30.55078125 C41.2057283 31.07388885 41.85286285 31.59699646 42.51960754 32.13595581 C45.02579803 34.08614242 45.02579803 34.08614242 48.01753235 35.81326294 C56.36517045 41.12303082 56.36517045 41.12303082 58.05528259 46.12010193 C58.38695749 49.80330711 58.3525787 53.31027864 58.171875 57.00390625 C58.15489563 58.32293442 58.13791626 59.64196259 58.12042236 61.0009613 C58.07495209 64.48073595 57.95745336 67.95433963 57.82397461 71.43170166 C57.70041696 74.9907124 57.64558451 78.55076742 57.5859375 82.11132812 C57.46422028 89.0796387 57.22953409 96.03108987 57 103 C46.11 103 35.22 103 24 103 C23.97421875 99.78636719 23.9484375 96.57273437 23.921875 93.26171875 C23.88347748 90.15396307 23.8383098 87.04637461 23.79248047 83.9387207 C23.76423139 81.77669234 23.74303654 79.61455995 23.72900391 77.45239258 C23.70762904 74.34662459 23.66100657 71.24211268 23.609375 68.13671875 C23.60814636 67.16788254 23.60691772 66.19904633 23.60565186 65.20085144 C23.58593323 64.3001442 23.5662146 63.39943695 23.54589844 62.47143555 C23.53701599 61.67867722 23.52813354 60.88591888 23.51898193 60.06913757 C23.15263833 57.84115819 23.15263833 57.84115819 21.19683838 56.24380493 C17.88335223 54.36777689 14.58012049 54.59147825 10.875 54.63671875 C10.09108887 54.63622025 9.30717773 54.63572174 8.49951172 54.63520813 C6.84535176 54.63754422 5.19118796 54.64724539 3.53710938 54.66381836 C1.00879038 54.68741795 -1.51847376 54.68437512 -4.046875 54.67773438 C-5.65625627 54.68331138 -7.26563311 54.6904214 -8.875 54.69921875 C-10.00639404 54.69785164 -10.00639404 54.69785164 -11.16064453 54.69645691 C-14.8871879 54.74666149 -17.89940007 54.79384135 -21 57 C-22.15291684 59.30583369 -22.15397338 60.69866887 -22.20532227 63.26611328 C-22.22526749 64.14687531 -22.24521271 65.02763733 -22.26576233 65.93508911 C-22.29083107 67.36327469 -22.29083107 67.36327469 -22.31640625 68.8203125 C-22.33718735 69.79410858 -22.35796844 70.76790466 -22.37937927 71.77120972 C-22.44488598 74.88906647 -22.50376497 78.00700903 -22.5625 81.125 C-22.60568415 83.23568604 -22.6492984 85.34636333 -22.69335938 87.45703125 C-22.80137977 92.63793407 -22.90044493 97.81889984 -23 103 C-33.56 103 -44.12 103 -55 103 C-55.37992123 95.28431571 -55.73949056 87.60307892 -55.9315033 79.88613892 C-56.02593818 76.29268155 -56.15150695 72.70707989 -56.35791016 69.11816406 C-57.64588388 46.12109741 -57.64588388 46.12109741 -53.31716919 39.37890625 C-49.25523523 35.06038236 -44.58154039 32.12276238 -39.38017273 29.35144043 C-35.34416205 27.05983027 -31.8090063 24.13594642 -28.1875 21.25 C-26.79011313 20.17921434 -25.39068089 19.11108703 -23.98828125 18.046875 C-20.8326791 15.63927307 -17.68773384 13.21829165 -14.546875 10.79150391 C-9.7622602 7.09544487 -4.9586102 3.45949549 0 0 Z " fill="#030303" transform="translate(693,470)"/>
<path d="M0 0 C6.22042375 4.89077927 9.32142584 11.12443377 11.7890625 18.52734375 C12.55016785 29.09499882 11.58177341 38.08235181 4.7890625 46.52734375 C-2.44668342 53.87367967 -9.4755209 57.35037525 -19.8359375 57.83984375 C-29.13311599 57.68788392 -36.5971936 54.20606774 -43.265625 47.8125 C-49.61818024 40.35016102 -51.61363694 32.10416178 -51.484375 22.5 C-50.67364603 13.68621787 -46.90681364 6.29469019 -40.2109375 0.52734375 C-27.95350277 -7.77541187 -12.45292728 -8.29461764 0 0 Z " fill="#FAFBFB" transform="translate(802.2109375,636.47265625)"/>
<path d="M0 0 C1.051875 0.556875 2.10375 1.11375 3.1875 1.6875 C10.11745724 7.38546484 14.15316169 15.57030172 15.31640625 24.40234375 C15.76184564 33.4979288 12.54977616 42.16537092 6.83203125 49.21484375 C0.35741675 55.52379647 -7.78433681 58.92389745 -16.75 59.375 C-25.98080069 59.12286887 -33.42693674 55.63174871 -40.0546875 49.2890625 C-47.45072652 40.5860929 -48.88320004 31.0848005 -48 20 C-46.13809581 11.62736077 -41.03588523 4.30251894 -33.84375 -0.4140625 C-23.36283494 -5.85005949 -10.17510638 -6.16087665 0 0 Z " fill="#FAFAFA" transform="translate(544,635)"/>
<path d="M0 0 C1.94692715 -0.04976531 3.89421612 -0.08553547 5.84155273 -0.11523438 C7.46806007 -0.14731995 7.46806007 -0.14731995 9.12742615 -0.18005371 C12 0 12 0 14.53515625 1.84375 C15.03917969 2.7203125 15.54320312 3.596875 16.0625 4.5 C16.68253906 5.5003125 17.30257812 6.500625 17.94140625 7.53125 C18.26512207 8.08554687 18.58883789 8.63984375 18.92236328 9.2109375 C20.95256957 12.5814295 23.25359536 15.77154156 25.5 19 C26.36473151 20.27073251 27.22931397 21.54156646 28.09375 22.8125 C31.64736012 27.93275544 35.33416779 32.9594807 39 38 C39.33 25.46 39.66 12.92 40 0 C43.63 0 47.26 0 51 0 C51 20.13 51 40.26 51 61 C41 61 41 61 38.5546875 59.234375 C38.00039063 58.41453125 37.44609375 57.5946875 36.875 56.75 C36.22789062 55.82832031 35.58078125 54.90664063 34.9140625 53.95703125 C34.28242187 52.98121094 33.65078125 52.00539063 33 51 C32.38898437 50.09636719 31.77796875 49.19273437 31.1484375 48.26171875 C29.85179075 46.3327566 28.56848255 44.39477831 27.296875 42.44921875 C22.72165926 35.50514131 17.81833113 28.77636689 13 22 C12.97494385 23.145896 12.9498877 24.29179199 12.92407227 25.47241211 C12.83016894 29.70853598 12.72990725 33.94448928 12.62768555 38.18041992 C12.5842718 40.01664247 12.54260161 41.85290708 12.50268555 43.68920898 C12.44513831 46.32288311 12.38140002 48.95634421 12.31640625 51.58984375 C12.29969376 52.41588608 12.28298126 53.24192841 12.26576233 54.09300232 C12.11387171 59.88612829 12.11387171 59.88612829 11 61 C9.33570949 61.09823937 7.66718069 61.12973631 6 61.125 C4.63875 61.12886719 4.63875 61.12886719 3.25 61.1328125 C1 61 1 61 0 60 C-0.09386381 58.1281906 -0.11743804 56.2528194 -0.11352539 54.37866211 C-0.11344986 53.17749252 -0.11337433 51.97632294 -0.11329651 50.73875427 C-0.10813522 49.4314888 -0.10297394 48.12422333 -0.09765625 46.77734375 C-0.09579198 45.43355868 -0.09436812 44.08977293 -0.09336853 42.74598694 C-0.08954402 39.20317723 -0.07971432 35.6604083 -0.06866455 32.11761475 C-0.05844899 28.50484773 -0.0538706 24.89207416 -0.04882812 21.27929688 C-0.03809198 14.1861812 -0.02101636 7.09309326 0 0 Z " fill="#FBFBFB" transform="translate(824,632)"/>
<path d="M0 0 C1.65322266 0.01740234 1.65322266 0.01740234 3.33984375 0.03515625 C4.44457031 0.04417969 5.54929688 0.05320312 6.6875 0.0625 C7.54214844 0.07410156 8.39679688 0.08570313 9.27734375 0.09765625 C11.83318292 6.45875855 14.3791892 12.82371473 16.91703796 19.1920166 C18.58546062 23.37486712 20.26708222 27.55222842 21.95439148 31.72749329 C23.16660725 34.73257855 24.37075128 37.74085927 25.57339478 40.74978638 C26.16767994 42.23166433 26.76531876 43.71220175 27.36630249 45.19137573 C28.21392109 47.27913153 29.0496208 49.37129659 29.8828125 51.46484375 C30.36903076 52.67253418 30.85524902 53.88022461 31.35620117 55.12451172 C32.27734375 58.09765625 32.27734375 58.09765625 31.27734375 61.09765625 C27.64734375 61.09765625 24.01734375 61.09765625 20.27734375 61.09765625 C17.80234375 55.15765625 17.80234375 55.15765625 15.27734375 49.09765625 C7.02734375 49.09765625 -1.22265625 49.09765625 -9.72265625 49.09765625 C-11.04265625 52.72765625 -12.36265625 56.35765625 -13.72265625 60.09765625 C-14.72265625 61.09765625 -14.72265625 61.09765625 -17.2265625 61.1953125 C-18.23589844 61.18371094 -19.24523437 61.17210937 -20.28515625 61.16015625 C-21.29707031 61.15113281 -22.30898437 61.14210938 -23.3515625 61.1328125 C-24.52525391 61.11541016 -24.52525391 61.11541016 -25.72265625 61.09765625 C-26.72265625 59.09765625 -26.72265625 59.09765625 -26.14851379 57.10217285 C-25.82082504 56.28406128 -25.49313629 55.46594971 -25.15551758 54.62304688 C-24.78795853 53.69447876 -24.42039948 52.76591064 -24.04170227 51.8092041 C-23.6334874 50.80095581 -23.22527252 49.79270752 -22.8046875 48.75390625 C-22.39103439 47.71504272 -21.97738129 46.6761792 -21.55119324 45.60583496 C-20.21972712 42.26684126 -18.87759085 38.93225322 -17.53515625 35.59765625 C-16.6483837 33.37918786 -15.76230739 31.16044103 -14.87695312 28.94140625 C-12.86532433 23.90377961 -10.84773446 18.8686105 -8.82070923 13.8371582 C-8.06855456 11.96062835 -7.32308983 10.08140707 -6.58334351 8.19995117 C-6.22543732 7.29156494 -5.86753113 6.38317871 -5.4987793 5.44726562 C-5.18047653 4.63366577 -4.86217377 3.82006592 -4.53422546 2.98181152 C-3.30041217 0.11736596 -3.26735832 0.11719363 0 0 Z " fill="#FBFBFB" transform="translate(173.72265625,631.90234375)"/>
<path d="M0 0 C9.57 0 19.14 0 29 0 C29 18.81 29 37.62 29 57 C19.43 57 9.86 57 0 57 C0 38.19 0 19.38 0 0 Z " fill="#020202" transform="translate(498,516)"/>
<path d="M0 0 C1.6874269 0.00015917 3.37485866 0.00585622 5.06225586 0.01586914 C6.39189613 0.01799156 6.39189613 0.01799156 7.74839783 0.02015686 C10.59133215 0.02577324 13.43418892 0.03832848 16.27709961 0.05102539 C18.19962452 0.05603828 20.12215065 0.06060155 22.04467773 0.06469727 C26.7680151 0.07574798 31.49129419 0.09302356 36.21459961 0.11352539 C36.21459961 3.74352539 36.21459961 7.37352539 36.21459961 11.11352539 C26.64459961 11.11352539 17.07459961 11.11352539 7.21459961 11.11352539 C7.21459961 15.73352539 7.21459961 20.35352539 7.21459961 25.11352539 C15.79459961 25.11352539 24.37459961 25.11352539 33.21459961 25.11352539 C33.21459961 28.41352539 33.21459961 31.71352539 33.21459961 35.11352539 C24.63459961 35.11352539 16.05459961 35.11352539 7.21459961 35.11352539 C7.21459961 40.06352539 7.21459961 45.01352539 7.21459961 50.11352539 C16.78459961 50.11352539 26.35459961 50.11352539 36.21459961 50.11352539 C36.21459961 53.41352539 36.21459961 56.71352539 36.21459961 60.11352539 C34.34497243 61.98315257 31.667964 61.24238842 29.18078613 61.25247192 C28.33600708 61.25044769 27.49122803 61.24842346 26.62084961 61.24633789 C25.75899048 61.24729462 24.89713135 61.24825134 24.00915527 61.24923706 C22.18326749 61.24991889 20.3573773 61.24806444 18.53149414 61.24389648 C15.72658883 61.23854825 12.92184366 61.24384138 10.11694336 61.25024414 C8.34741175 61.24958336 6.57788025 61.2483022 4.80834961 61.24633789 C3.96357056 61.24836212 3.1187915 61.25038635 2.24841309 61.25247192 C-3.67045008 61.2284757 -3.67045008 61.2284757 -4.78540039 60.11352539 C-4.88445191 58.27779908 -4.91339246 56.43824964 -4.91479492 54.59985352 C-4.91794708 53.42193237 -4.92109924 52.24401123 -4.92434692 51.03039551 C-4.92232269 49.74814087 -4.92029846 48.46588623 -4.91821289 47.14477539 C-4.91916962 45.83899536 -4.92012634 44.53321533 -4.92111206 43.18786621 C-4.92258872 40.42039817 -4.9204355 37.65296235 -4.91577148 34.88549805 C-4.9100742 31.3308989 -4.91335337 27.77637525 -4.91934395 24.22177887 C-4.92381786 20.84193825 -4.92068925 17.46211816 -4.91821289 14.08227539 C-4.92023712 12.80002075 -4.92226135 11.51776611 -4.92434692 10.19665527 C-4.92119476 9.01873413 -4.9180426 7.84081299 -4.91479492 6.62719727 C-4.91399933 5.58430542 -4.91320374 4.54141357 -4.91238403 3.46691895 C-4.70081294 -0.45413768 -4.12663937 0.12375926 0 0 Z " fill="#F8F8F8" transform="translate(324.785400390625,631.886474609375)"/>
<path d="M0 0 C1.81242052 -0.02687279 3.62495233 -0.04633715 5.4375 -0.0625 C6.44683594 -0.07410156 7.45617187 -0.08570313 8.49609375 -0.09765625 C11 0 11 0 12 1 C12.12332292 3.969677 12.18617433 6.91965895 12.2109375 9.890625 C12.23901528 11.73308166 12.2676798 13.57552946 12.296875 15.41796875 C12.33809316 18.33219063 12.37496602 21.24624866 12.40136719 24.16064453 C12.42901427 26.96682297 12.47489789 29.7722405 12.5234375 32.578125 C12.52669037 33.44600647 12.52994324 34.31388794 12.53329468 35.20806885 C12.629144 39.93644131 12.89546518 43.18677167 16 47 C20.46564036 49.97709357 24.76403532 49.49063212 30 49 C33.2319403 47.74679866 34.45895151 46.99899791 36.09521484 43.9777832 C37.35806826 39.82154382 37.3567351 35.86573982 37.4140625 31.54296875 C37.43342865 30.64000565 37.4527948 29.73704254 37.4727478 28.80671692 C37.53234082 25.93373953 37.57884769 23.06072163 37.625 20.1875 C37.66319845 18.23500895 37.70225127 16.28253441 37.7421875 14.33007812 C37.83802569 9.55352016 37.92213152 4.77688333 38 0 C41.96 0 45.92 0 50 0 C50.09967465 5.77997948 50.17184583 11.55944688 50.21972656 17.34008789 C50.23970918 19.30209074 50.26690484 21.26403505 50.30175781 23.22583008 C50.72460029 47.65741961 50.72460029 47.65741961 44.25854492 54.96923828 C37.78331202 61.05206107 30.01962108 62.34610302 21.37109375 62.21484375 C15.88432281 61.71768988 11.44722197 60.18993807 7.1875 56.6875 C2.96343998 51.49794055 -0.13261378 47.34312001 -0.11352539 40.52856445 C-0.11344986 39.62785721 -0.11337433 38.72714996 -0.11329651 37.79914856 C-0.10813522 36.83031235 -0.10297394 35.86147614 -0.09765625 34.86328125 C-0.0962413 33.86870407 -0.09482635 32.87412689 -0.09336853 31.84941101 C-0.08776761 28.67041018 -0.07521496 25.49147957 -0.0625 22.3125 C-0.05748512 20.15820414 -0.05292219 18.00390718 -0.04882812 15.84960938 C-0.03779788 10.56638226 -0.02105886 5.28319615 0 0 Z " fill="#FAFAFA" transform="translate(614,632)"/>
<path d="M0 0 C3.97727447 2.31571573 6.42075326 4.61118894 8.375 8.875 C8.375 10.525 8.375 12.175 8.375 13.875 C4.745 14.535 1.115 15.195 -2.625 15.875 C-3.058125 15.09125 -3.49125 14.3075 -3.9375 13.5 C-5.51720247 10.65801625 -5.51720247 10.65801625 -8.625 8.875 C-12.91144991 8.19611475 -16.48160314 8.14991906 -20.1875 10.5 C-21.9875104 13.47393023 -21.93568741 15.45743849 -21.625 18.875 C-15.53563446 20.93926507 -15.53563446 20.93926507 -9.37890625 22.7890625 C-1.64917209 24.98734528 4.44471033 26.81040465 9.3125 33.5625 C11.13984869 39.25952827 11.17630506 44.51560177 9.25 50.1875 C5.2037815 55.98707984 0.21569715 59.28981171 -6.625 60.875 C-14.10462906 61.89551511 -21.00307392 60.49431227 -27.625 56.875 C-31.65357563 53.53561632 -34.20139935 50.45644243 -35.5625 45.375 C-35.583125 44.55 -35.60375 43.725 -35.625 42.875 C-31.995 42.215 -28.365 41.555 -24.625 40.875 C-24.0475 41.82375 -23.47 42.7725 -22.875 43.75 C-20.66841521 46.81470109 -19.98491614 47.59992391 -16.625 48.875 C-14.17295415 49.22621415 -14.17295415 49.22621415 -11.625 49.1875 C-10.779375 49.20425781 -9.93375 49.22101562 -9.0625 49.23828125 C-6.11198956 48.79854171 -4.75410105 47.94119579 -2.625 45.875 C-1.95833333 42.875 -1.95833333 42.875 -2.625 39.875 C-6.59781886 35.82861042 -12.62629885 34.80711103 -17.89453125 33.21289062 C-23.36580303 31.48775585 -28.32405668 29.62651969 -32.12109375 25.0859375 C-34.97615256 19.51798049 -35.16160544 14.92983599 -33.625 8.875 C-31.31187327 3.54475145 -27.75158756 1.13641441 -22.6015625 -1.203125 C-15.02467328 -3.5497731 -7.23324321 -3.28589809 0 0 Z " fill="#FAFBFA" transform="translate(299.625,633.125)"/>
<path d="M0 0 C4.44180235 2.7386276 7.74114775 6.1321382 9.1875 11.25 C9.249375 11.95125 9.31125 12.6525 9.375 13.375 C5.72706816 14.64753436 2.1813457 15.70329194 -1.625 16.375 C-2.223125 15.405625 -2.82125 14.43625 -3.4375 13.4375 C-5.33627509 10.14447958 -5.33627509 10.14447958 -8.625 9.375 C-14.71068662 9.14205155 -14.71068662 9.14205155 -20.625 10.375 C-20.7796875 12.2621875 -20.7796875 12.2621875 -20.9375 14.1875 C-20.99550781 14.89519531 -21.05351562 15.60289062 -21.11328125 16.33203125 C-20.7972223 18.571885 -20.7972223 18.571885 -18.625 19.99609375 C-14.93179356 21.69362223 -11.24175598 22.63280271 -7.3125 23.625 C-0.4485779 25.48361318 4.77880303 27.67284314 9.375 33.375 C11.77177101 38.16854201 11.20633582 45.61021457 9.69140625 50.6484375 C6.86625182 56.01740318 2.6188107 58.51199588 -2.875 60.625 C-12.42532369 62.53506474 -19.46254304 61.25406253 -27.875 56.5625 C-30.98409341 54.08935751 -32.76437739 51.88155799 -34.625 48.375 C-34.875 45.5 -34.875 45.5 -34.625 43.375 C-30.74815913 42.18212589 -27.70878077 41.375 -23.625 41.375 C-23.2125 42.32375 -22.8 43.2725 -22.375 44.25 C-20.51866686 47.56488061 -20.02568952 48.10878582 -16.625 49.375 C-14.17156978 49.68938484 -14.17156978 49.68938484 -11.625 49.625 C-10.3565625 49.63273438 -10.3565625 49.63273438 -9.0625 49.640625 C-6.43301419 49.35407847 -4.82347316 48.83737724 -2.625 47.375 C-1.45389551 44.5153994 -1.45389551 44.5153994 -1.625 41.375 C-5.3433302 36.08511034 -11.64262872 35.34399024 -17.5390625 33.75195312 C-24.38422136 31.77697411 -28.86187668 29.4898512 -32.5 23.0625 C-34.02050201 18.0786323 -34.77038276 14.06224417 -32.7109375 9.23046875 C-26.28454265 -1.94316616 -11.66409872 -5.39548521 0 0 Z " fill="#FAFAFA" transform="translate(477.625,632.625)"/>
<path d="M0 0 C3.69595567 2.25247084 6.05327856 4.76254327 8.4375 8.375 C9.25 11.75 9.25 11.75 9.4375 14.375 C5.8075 15.035 2.1775 15.695 -1.5625 16.375 C-2.18125 15.405625 -2.8 14.43625 -3.4375 13.4375 C-5.21928846 10.34664638 -5.21928846 10.34664638 -7.5625 9.375 C-11.93801317 8.85973687 -15.41673531 8.63843699 -19.1875 11.0625 C-20.76990334 13.29393504 -20.76990334 13.29393504 -20.625 15.9375 C-19.19588935 19.21604797 -17.73881468 19.74872688 -14.5625 21.375 C-11.23553238 22.47252086 -7.90737716 23.45688281 -4.53320312 24.39257812 C1.6108414 26.19211344 6.97511453 28.72584476 10.4375 34.375 C12.29554418 39.94913253 12.24381384 45.31775568 9.75 50.6875 C6.76352211 55.89575211 3.33037791 58.22948219 -2.3125 60.125 C-10.22523037 62.24364526 -16.62329147 62.10293573 -24.19140625 58.7734375 C-29.37845142 55.71419175 -32.93966269 51.70025928 -34.5 45.875 C-34.520625 45.05 -34.54125 44.225 -34.5625 43.375 C-30.68565913 42.18212589 -27.64628077 41.375 -23.5625 41.375 C-22.1898318 43.34821053 -20.85822383 45.35043152 -19.5625 47.375 C-16.56083864 49.32219843 -14.10731871 49.67128894 -10.5625 49.6875 C-9.716875 49.70425781 -8.87125 49.72101562 -8 49.73828125 C-5.04948956 49.29854171 -3.69160105 48.44119579 -1.5625 46.375 C-0.89583333 43.375 -0.89583333 43.375 -1.5625 40.375 C-5.53531886 36.32861042 -11.56379885 35.30711103 -16.83203125 33.71289062 C-22.30763529 31.98638985 -27.29810898 30.13601986 -31.05859375 25.55078125 C-33.73689113 20.24975283 -34.08697589 16.13044884 -32.5625 10.375 C-30.34321786 5.23560977 -26.29073846 1.72268406 -21.29296875 -0.74609375 C-14.73963051 -2.85553739 -6.3202442 -2.89476834 0 0 Z " fill="#FBFBFB" transform="translate(245.5625,632.625)"/>
<path d="M0 0 C4.43648884 3.14816348 7.05503064 7.1282789 8.7890625 12.26953125 C9.69909099 19.34870635 9.0586448 25.42476325 4.7890625 31.26953125 C-1.19231093 36.95183601 -5.98435236 37.72688624 -14.078125 37.58203125 C-19.72406271 37.01884544 -22.18277307 34.34443043 -25.9609375 30.39453125 C-29.3562744 25.67878556 -30.7518139 21.35922606 -30.59375 15.48828125 C-29.6141318 9.81049411 -26.74574615 4.8043399 -22.7109375 0.76953125 C-15.15974086 -3.76118673 -7.81057125 -4.40317065 0 0 Z " fill="#050505" transform="translate(793.2109375,644.73046875)"/>
<path d="M0 0 C3.9285121 2.94424436 6.2584475 6.74018625 7.79296875 11.34375 C8.42833636 19.05148827 8.70114694 25.14394597 3.79296875 31.34375 C-0.74742233 35.87228628 -4.50119352 37.50591161 -10.89453125 37.71875 C-16.89655577 37.63176414 -20.95543422 36.7131742 -25.20703125 32.34375 C-29.15378029 26.89163947 -31.0164264 21.46935025 -30.625 14.73046875 C-29.67446783 9.30266357 -27.39264216 5.12308344 -23.26953125 1.46875 C-15.8137896 -3.70462175 -8.06208028 -4.50575345 0 0 Z " fill="#040404" transform="translate(538.20703125,644.65625)"/>
<path d="M0 0 C15.51 0 31.02 0 47 0 C47 3.3 47 6.6 47 10 C46 11 46 11 42.18359375 11.09765625 C40.60153318 11.09098089 39.01948841 11.07901875 37.4375 11.0625 C36.63119141 11.05798828 35.82488281 11.05347656 34.99414062 11.04882812 C32.99606244 11.03700518 30.99802217 11.01906914 29 11 C29.00222061 11.61165512 29.00444122 12.22331024 29.00672913 12.85350037 C29.02878122 19.19570331 29.04390627 25.53789544 29.05493164 31.88012695 C29.05997341 34.24992312 29.06680665 36.61971615 29.07543945 38.98950195 C29.0875119 42.38754039 29.09322971 45.78553785 29.09765625 49.18359375 C29.10281754 50.25024765 29.10797882 51.31690155 29.11329651 52.4158783 C29.11340981 53.88729027 29.11340981 53.88729027 29.11352539 55.38842773 C29.115746 56.25668686 29.11796661 57.12494598 29.12025452 58.01951599 C29 60 29 60 28 61 C26.33570949 61.09823937 24.66718069 61.12973631 23 61.125 C21.63875 61.12886719 21.63875 61.12886719 20.25 61.1328125 C18 61 18 61 17 60 C16.90680551 58.4651703 16.882542 56.92607918 16.88647461 55.38842773 C16.88655014 54.40748642 16.88662567 53.4265451 16.88670349 52.4158783 C16.89186478 51.3492244 16.89702606 50.2825705 16.90234375 49.18359375 C16.9037587 48.0974025 16.90517365 47.01121124 16.90663147 45.8921051 C16.91224952 42.40720925 16.92480508 38.92237658 16.9375 35.4375 C16.94251267 33.08138113 16.94707598 30.72526126 16.95117188 28.36914062 C16.96222482 22.57940257 16.97950154 16.78971201 17 11 C11.39 11 5.78 11 0 11 C0 7.37 0 3.74 0 0 Z " fill="#F9F9F9" transform="translate(673,632)"/>
<path d="M0 0 C15.51 0 31.02 0 47 0 C47 3.63 47 7.26 47 11 C41.06 11 35.12 11 29 11 C29 27.5 29 44 29 61 C25.37 61 21.74 61 18 61 C18 44.5 18 28 18 11 C12.06 11 6.12 11 0 11 C0 7.37 0 3.74 0 0 Z " fill="#FCFCFC" transform="translate(368,632)"/>
<path d="M0 0 C3.96 0 7.92 0 12 0 C12 16.5 12 33 12 50 C20.58 50 29.16 50 38 50 C38 53.3 38 56.6 38 60 C36.21169552 61.78830448 33.80418848 61.12848711 31.42358398 61.13894653 C30.64442627 61.1369223 29.86526855 61.13489807 29.0625 61.1328125 C27.86959351 61.13424759 27.86959351 61.13424759 26.65258789 61.13571167 C24.9679354 61.13639343 23.28328029 61.13453943 21.59863281 61.13037109 C19.01100803 61.12502275 16.42355684 61.13031619 13.8359375 61.13671875 C12.20312461 61.13605797 10.57031184 61.1347768 8.9375 61.1328125 C8.15834229 61.13483673 7.37918457 61.13686096 6.57641602 61.13894653 C1.11495105 61.11495105 1.11495105 61.11495105 0 60 C-0.09386381 58.1281906 -0.11743804 56.2528194 -0.11352539 54.37866211 C-0.11344986 53.17749252 -0.11337433 51.97632294 -0.11329651 50.73875427 C-0.10813522 49.4314888 -0.10297394 48.12422333 -0.09765625 46.77734375 C-0.09579198 45.43355868 -0.09436812 44.08977293 -0.09336853 42.74598694 C-0.08954402 39.20317723 -0.07971432 35.6604083 -0.06866455 32.11761475 C-0.05844899 28.50484773 -0.0538706 24.89207416 -0.04882812 21.27929688 C-0.03809198 14.18617961 -0.02049572 7.09309675 0 0 Z " fill="#FBFBFB" transform="translate(569,632)"/>
<path d="M0 0 C6.93 0 13.86 0 21 0 C21 11.55 21 23.1 21 35 C14.07 35 7.14 35 0 35 C0 23.45 0 11.9 0 0 Z " fill="#0D0D0D" transform="translate(321,538)"/>
<path d="M0 0 C3.96 0 7.92 0 12 0 C12.02255497 7.80575587 12.04091738 15.61149407 12.05181217 23.41727352 C12.05704002 27.0414596 12.06413587 30.6656223 12.07543945 34.28979492 C12.08627184 37.78459975 12.09227758 41.27938204 12.09487724 44.77420235 C12.09763551 46.76239389 12.10544688 48.75057631 12.11329651 50.73875427 C12.11337204 51.93992386 12.11344757 53.14109344 12.11352539 54.37866211 C12.115746 55.44233505 12.11796661 56.506008 12.12025452 57.60191345 C12 60 12 60 11 61 C9.33570949 61.09823937 7.66718069 61.12973631 6 61.125 C4.63875 61.12886719 4.63875 61.12886719 3.25 61.1328125 C1 61 1 61 0 60 C-0.09386381 58.1281906 -0.11743804 56.2528194 -0.11352539 54.37866211 C-0.11344986 53.17749252 -0.11337433 51.97632294 -0.11329651 50.73875427 C-0.10813522 49.4314888 -0.10297394 48.12422333 -0.09765625 46.77734375 C-0.09579198 45.43355868 -0.09436812 44.08977293 -0.09336853 42.74598694 C-0.08954402 39.20317723 -0.07971432 35.6604083 -0.06866455 32.11761475 C-0.05844899 28.50484773 -0.0538706 24.89207416 -0.04882812 21.27929688 C-0.03809198 14.18617961 -0.02049572 7.09309675 0 0 Z " fill="#FCFCFC" transform="translate(729,632)"/>
<path d="M0 0 C6.27 0 12.54 0 19 0 C19 11.55 19 23.1 19 35 C12.73 35 6.46 35 0 35 C0 23.45 0 11.9 0 0 Z " fill="#040403" transform="translate(684,538)"/>
<path d="M0 0 C1.13308594 -0.01933594 2.26617188 -0.03867187 3.43359375 -0.05859375 C6.5625 0.4375 6.5625 0.4375 8.9453125 1.8984375 C11.36172244 5.69231784 11.10845291 9.09541257 11 13.5 C11.00708984 14.31533203 11.01417969 15.13066406 11.02148438 15.97070312 C10.95799557 21.91423235 10.95799557 21.91423235 9.25439453 24.16821289 C6.4712757 26.25615442 3.33605288 25.86931074 0 25.8125 C-0.68513672 25.82410156 -1.37027344 25.83570313 -2.07617188 25.84765625 C-4.06640625 25.8359375 -4.06640625 25.8359375 -7.4375 25.4375 C-10.21845904 21.26606144 -9.76820347 17.83787332 -9.75 12.9375 C-9.76611328 12.06996094 -9.78222656 11.20242188 -9.79882812 10.30859375 C-9.79947266 9.47457031 -9.80011719 8.64054687 -9.80078125 7.78125 C-9.80376221 7.02005859 -9.80674316 6.25886719 -9.80981445 5.47460938 C-8.81649388 0.03968029 -4.79574015 0.00544352 0 0 Z " fill="#F8F8F8" transform="translate(512.4375,355.5625)"/>
<path d="M0 0 C1.2375 -0.01933594 2.475 -0.03867187 3.75 -0.05859375 C7 0.4375 7 0.4375 8.9140625 1.8984375 C10.55903269 5.74459081 10.43417068 9.36133933 10.375 13.5 C10.38660156 14.31533203 10.39820313 15.13066406 10.41015625 15.97070312 C10.40628906 16.75509766 10.40242188 17.53949219 10.3984375 18.34765625 C10.39505371 19.06058838 10.39166992 19.77352051 10.38818359 20.50805664 C9.88327796 23.01765994 9.02462511 23.90621895 7 25.4375 C3.75 25.8359375 3.75 25.8359375 0 25.8125 C-1.2375 25.82023437 -2.475 25.82796875 -3.75 25.8359375 C-7 25.4375 -7 25.4375 -8.67822266 24.18408203 C-10.32824157 22.00376521 -10.38637227 20.80785283 -10.3984375 18.09375 C-10.40230469 17.25972656 -10.40617187 16.42570312 -10.41015625 15.56640625 C-10.39275391 14.26509766 -10.39275391 14.26509766 -10.375 12.9375 C-10.38660156 12.06996094 -10.39820313 11.20242188 -10.41015625 10.30859375 C-10.40435547 9.05755859 -10.40435547 9.05755859 -10.3984375 7.78125 C-10.39505371 7.02005859 -10.39166992 6.25886719 -10.38818359 5.47460938 C-9.30798261 -0.19406797 -4.96523659 0.00517212 0 0 Z " fill="#F8F8F8" transform="translate(473,310.5625)"/>
<path d="M0 0 C1.13308594 -0.00773437 2.26617188 -0.01546875 3.43359375 -0.0234375 C8.36056608 0.60396722 8.36056608 0.60396722 10.5625 3.375 C11.12705539 6.36616683 11.07436475 9.27793831 11 12.3125 C11.00708984 13.12396484 11.01417969 13.93542969 11.02148438 14.77148438 C10.98529369 18.16505705 10.81926782 20.77679539 9.47265625 23.9140625 C6.5633904 26.13914517 4.17081291 25.86887989 0.5625 25.8125 C-0.675 25.81121094 -1.9125 25.80992187 -3.1875 25.80859375 C-6.4375 25.375 -6.4375 25.375 -8.11572266 24.11938477 C-9.76667372 21.94058067 -9.82387522 20.7446875 -9.8359375 18.03125 C-9.83980469 17.19722656 -9.84367187 16.36320312 -9.84765625 15.50390625 C-9.83025391 14.20259766 -9.83025391 14.20259766 -9.8125 12.875 C-9.82410156 12.00746094 -9.83570313 11.13992188 -9.84765625 10.24609375 C-9.84185547 8.99505859 -9.84185547 8.99505859 -9.8359375 7.71875 C-9.83255371 6.95755859 -9.82916992 6.19636719 -9.82568359 5.41210938 C-8.78759783 -0.03555577 -4.82132898 -0.03283538 0 0 Z " fill="#F8F8F8" transform="translate(512.4375,446.625)"/>
<path d="M0 0 C1.13308594 -0.01933594 2.26617187 -0.03867187 3.43359375 -0.05859375 C6.5625 0.4375 6.5625 0.4375 8.9453125 1.8984375 C11.36172244 5.69231784 11.10845291 9.09541257 11 13.5 C11.00708984 14.31533203 11.01417969 15.13066406 11.02148438 15.97070312 C10.95792762 21.92059305 10.95792762 21.92059305 9.23852539 24.16821289 C6.51941409 26.22744955 3.89967145 25.83335732 0.5625 25.8125 C-0.675 25.82023437 -1.9125 25.82796875 -3.1875 25.8359375 C-6.4375 25.4375 -6.4375 25.4375 -8.11572266 24.18408203 C-9.76574157 22.00376521 -9.82387227 20.80785283 -9.8359375 18.09375 C-9.83980469 17.25972656 -9.84367187 16.42570312 -9.84765625 15.56640625 C-9.83025391 14.26509766 -9.83025391 14.26509766 -9.8125 12.9375 C-9.82410156 12.06996094 -9.83570313 11.20242188 -9.84765625 10.30859375 C-9.84185547 9.05755859 -9.84185547 9.05755859 -9.8359375 7.78125 C-9.83255371 7.02005859 -9.82916992 6.25886719 -9.82568359 5.47460938 C-8.79145856 0.04720453 -4.81310844 0.00546323 0 0 Z " fill="#F8F8F8" transform="translate(472.4375,446.5625)"/>
<path d="M0 0 C1.13308594 -0.01933594 2.26617187 -0.03867187 3.43359375 -0.05859375 C6.5625 0.4375 6.5625 0.4375 8.9453125 1.8984375 C11.36172244 5.69231784 11.10845291 9.09541257 11 13.5 C11.00708984 14.31533203 11.01417969 15.13066406 11.02148438 15.97070312 C10.95792762 21.92059305 10.95792762 21.92059305 9.23852539 24.16821289 C6.51941409 26.22744955 3.89967145 25.83335732 0.5625 25.8125 C-0.675 25.82023437 -1.9125 25.82796875 -3.1875 25.8359375 C-6.4375 25.4375 -6.4375 25.4375 -8.11572266 24.18408203 C-9.76574157 22.00376521 -9.82387227 20.80785283 -9.8359375 18.09375 C-9.83980469 17.25972656 -9.84367187 16.42570312 -9.84765625 15.56640625 C-9.83025391 14.26509766 -9.83025391 14.26509766 -9.8125 12.9375 C-9.82410156 12.06996094 -9.83570313 11.20242188 -9.84765625 10.30859375 C-9.84185547 9.05755859 -9.84185547 9.05755859 -9.8359375 7.78125 C-9.83255371 7.02005859 -9.82916992 6.25886719 -9.82568359 5.47460938 C-8.79145856 0.04720453 -4.81310844 0.00546323 0 0 Z " fill="#F7F7F7" transform="translate(472.4375,355.5625)"/>
<path d="M0 0 C1.13308594 -0.01933594 2.26617188 -0.03867187 3.43359375 -0.05859375 C6.5625 0.4375 6.5625 0.4375 8.9453125 1.8984375 C11.36172244 5.69231784 11.10845291 9.09541257 11 13.5 C11.00708984 14.31533203 11.01417969 15.13066406 11.02148438 15.97070312 C10.95792051 21.92125858 10.95792051 21.92125858 9.23852539 24.16601562 C6.52009755 26.22829854 3.90299394 25.87152032 0.5625 25.875 C-0.675 25.89433594 -1.9125 25.91367187 -3.1875 25.93359375 C-6.4375 25.4375 -6.4375 25.4375 -8.3515625 23.9765625 C-9.99653269 20.13040919 -9.87167068 16.51366067 -9.8125 12.375 C-9.82410156 11.55966797 -9.83570313 10.74433594 -9.84765625 9.90429688 C-9.84378906 9.11990234 -9.83992188 8.33550781 -9.8359375 7.52734375 C-9.83086182 6.45794556 -9.83086182 6.45794556 -9.82568359 5.36694336 C-8.75131598 0.02686334 -4.72430188 0.00536243 0 0 Z " fill="#F7F8F8" transform="translate(512.4375,310.5625)"/>
<path d="M0 0 C1.02770508 0.00483398 1.02770508 0.00483398 2.07617188 0.00976562 C3.09807617 -0.0144043 3.09807617 -0.0144043 4.140625 -0.0390625 C9.14130325 -0.04396032 9.14130325 -0.04396032 11.33496094 1.57128906 C12.97103139 3.76864811 13.0125167 4.98119315 13.00195312 7.70117188 C13.00130859 8.53970703 13.00066406 9.37824219 13 10.2421875 C12.98388672 11.11423828 12.96777344 11.98628906 12.95117188 12.88476562 C12.95600586 14.19864258 12.95600586 14.19864258 12.9609375 15.5390625 C12.90575869 22.05517881 12.90575869 22.05517881 10.63867188 24.32226562 C7.92645938 24.54730912 5.34994002 24.64661557 2.63867188 24.63476562 C1.90132813 24.65087891 1.16398437 24.66699219 0.40429688 24.68359375 C-1.73632812 24.68554688 -1.73632812 24.68554688 -5.36132812 24.32226562 C-7.43610638 21.21009824 -7.616554 20.48166055 -7.62695312 16.94335938 C-7.62953125 16.10482422 -7.63210938 15.26628906 -7.63476562 14.40234375 C-7.62703125 13.53029297 -7.61929687 12.65824219 -7.61132812 11.75976562 C-7.6190625 10.88384766 -7.62679688 10.00792969 -7.63476562 9.10546875 C-7.6321875 8.26822266 -7.62960937 7.43097656 -7.62695312 6.56835938 C-7.62469727 5.80193115 -7.62244141 5.03550293 -7.62011719 4.24584961 C-7.01298341 -0.26698718 -3.83614151 0.04141075 0 0 Z " fill="#F9F9F9" transform="translate(470.361328125,401.677734375)"/>
<path d="M0 0 C1.02770508 0.00483398 1.02770508 0.00483398 2.07617188 0.00976562 C3.09807617 -0.0144043 3.09807617 -0.0144043 4.140625 -0.0390625 C9.14817033 -0.04396705 9.14817033 -0.04396705 11.33276367 1.5871582 C12.92734965 3.70582011 13.02473746 4.81734952 13.03710938 7.44726562 C13.04291016 8.630625 13.04291016 8.630625 13.04882812 9.83789062 C13.03722656 10.65773438 13.025625 11.47757812 13.01367188 12.32226562 C13.02527344 13.14210938 13.036875 13.96195312 13.04882812 14.80664062 C13.04496094 15.59554688 13.04109375 16.38445312 13.03710938 17.19726562 C13.03203369 18.27621094 13.03203369 18.27621094 13.02685547 19.37695312 C12.52236756 21.90510386 11.68888957 22.79147187 9.63867188 24.32226562 C7.02185271 24.59357464 4.68346156 24.69643284 2.07617188 24.63476562 C1.39103516 24.63798828 0.70589844 24.64121094 0 24.64453125 C-5.09405227 24.58954148 -5.09405227 24.58954148 -7.36132812 22.32226562 C-7.62011719 20.29101562 -7.62011719 20.29101562 -7.62695312 17.82226562 C-7.62953125 16.93539063 -7.63210938 16.04851562 -7.63476562 15.13476562 C-7.62316406 13.74257813 -7.62316406 13.74257813 -7.61132812 12.32226562 C-7.6190625 11.39414062 -7.62679688 10.46601563 -7.63476562 9.50976562 C-7.6321875 8.62289063 -7.62960937 7.73601562 -7.62695312 6.82226562 C-7.62469727 6.00757813 -7.62244141 5.19289063 -7.62011719 4.35351562 C-7.03537729 -0.23614095 -3.92864836 0.04240935 0 0 Z " fill="#FBFBFB" transform="translate(510.361328125,401.677734375)"/>
<path d="M0 0 C1.1446875 -0.01675781 2.289375 -0.03351563 3.46875 -0.05078125 C6.5 0.3125 6.5 0.3125 8.16674805 1.54785156 C9.8735019 3.80685483 9.87363548 5.09856179 9.86328125 7.91015625 C9.86263672 8.79380859 9.86199219 9.67746094 9.86132812 10.58789062 C9.84521484 11.50763672 9.82910156 12.42738281 9.8125 13.375 C9.81733398 14.76041992 9.81733398 14.76041992 9.82226562 16.17382812 C9.76705173 23.04544827 9.76705173 23.04544827 7.5 25.3125 C4.95464859 25.51099071 2.54283241 25.59101775 0 25.5625 C-0.68964844 25.57023437 -1.37929688 25.57796875 -2.08984375 25.5859375 C-7.24666707 25.56583293 -7.24666707 25.56583293 -9.5 23.3125 C-9.95027679 19.83196051 -9.82407972 16.31883808 -9.8125 12.8125 C-9.83666992 11.34876953 -9.83666992 11.34876953 -9.86132812 9.85546875 C-9.86197266 8.92347656 -9.86261719 7.99148438 -9.86328125 7.03125 C-9.86626221 6.17466797 -9.86924316 5.31808594 -9.87231445 4.43554688 C-9.74945068 3.73494141 -9.62658691 3.03433594 -9.5 2.3125 C-5.94223788 -0.05934142 -4.21979393 0.01425606 0 0 Z " fill="#FAFBFA" transform="translate(552.5,310.6875)"/>
<path d="M0 0 C1.71703125 -0.01160156 1.71703125 -0.01160156 3.46875 -0.0234375 C6.5 0.375 6.5 0.375 8.16674805 1.61254883 C9.87444807 3.86999004 9.87363282 5.16178472 9.86328125 7.97265625 C9.86263672 8.85630859 9.86199219 9.73996094 9.86132812 10.65039062 C9.84521484 11.57013672 9.82910156 12.48988281 9.8125 13.4375 C9.81733398 14.82291992 9.81733398 14.82291992 9.82226562 16.23632812 C9.76705173 23.10794827 9.76705173 23.10794827 7.5 25.375 C4.95464859 25.57349071 2.54283241 25.65351775 0 25.625 C-0.68964844 25.63273437 -1.37929688 25.64046875 -2.08984375 25.6484375 C-7.24666707 25.62833293 -7.24666707 25.62833293 -9.5 23.375 C-9.94869661 20.08256396 -9.82408242 16.75702257 -9.8125 13.4375 C-9.82861328 12.51775391 -9.84472656 11.59800781 -9.86132812 10.65039062 C-9.86197266 9.76673828 -9.86261719 8.88308594 -9.86328125 7.97265625 C-9.86626221 7.16320557 -9.86924316 6.35375488 -9.87231445 5.51977539 C-8.90552497 -0.04956598 -4.91433763 -0.03320498 0 0 Z " fill="#FAFAFA" transform="translate(552.5,355.625)"/>
<path d="M0 0 C1.1446875 -0.01675781 2.289375 -0.03351563 3.46875 -0.05078125 C6.5 0.3125 6.5 0.3125 8.16455078 1.5637207 C9.83074313 3.74561024 9.88632723 4.93201589 9.8984375 7.65625 C9.90423828 8.90728516 9.90423828 8.90728516 9.91015625 10.18359375 C9.89855469 11.05113281 9.88695312 11.91867187 9.875 12.8125 C9.88660156 13.68003906 9.89820313 14.54757812 9.91015625 15.44140625 C9.90628906 16.27542969 9.90242187 17.10945313 9.8984375 17.96875 C9.89505371 18.72994141 9.89166992 19.49113281 9.88818359 20.27539062 C9.39616535 22.85740337 8.58174244 23.7449339 6.5 25.3125 C3.46875 25.7109375 3.46875 25.7109375 0 25.6875 C-1.71703125 25.69910156 -1.71703125 25.69910156 -3.46875 25.7109375 C-6.5 25.3125 -6.5 25.3125 -8.16455078 24.07495117 C-9.87087886 21.82303483 -9.88670592 20.52120411 -9.8984375 17.71484375 C-9.90230469 16.83119141 -9.90617188 15.94753906 -9.91015625 15.03710938 C-9.89855469 14.11736328 -9.88695312 13.19761719 -9.875 12.25 C-9.88660156 11.32638672 -9.89820313 10.40277344 -9.91015625 9.45117188 C-9.90628906 8.56880859 -9.90242187 7.68644531 -9.8984375 6.77734375 C-9.89505371 5.969021 -9.89166992 5.16069824 -9.88818359 4.32788086 C-9.76008301 3.66280518 -9.63198242 2.99772949 -9.5 2.3125 C-5.94223788 -0.05934142 -4.21979393 0.01425606 0 0 Z " fill="#FAFAFA" transform="translate(552.5,446.6875)"/>
<path d="M0 0 C1.03447266 0.01160156 1.03447266 0.01160156 2.08984375 0.0234375 C2.77949219 0.01570313 3.46914063 0.00796875 4.1796875 0 C9.33651082 0.02010457 9.33651082 0.02010457 11.58984375 2.2734375 C11.84863281 4.3046875 11.84863281 4.3046875 11.85546875 6.7734375 C11.85933594 8.10375 11.85933594 8.10375 11.86328125 9.4609375 C11.85554687 10.3890625 11.8478125 11.3171875 11.83984375 12.2734375 C11.84757813 13.2015625 11.8553125 14.1296875 11.86328125 15.0859375 C11.86070312 15.9728125 11.858125 16.8596875 11.85546875 17.7734375 C11.85321289 18.588125 11.85095703 19.4028125 11.84863281 20.2421875 C11.58984375 22.2734375 11.58984375 22.2734375 9.58984375 24.2734375 C7.04449234 24.47192821 4.63267616 24.55195525 2.08984375 24.5234375 C1.40019531 24.53117187 0.71054687 24.53890625 0 24.546875 C-5.15682332 24.52677043 -5.15682332 24.52677043 -7.41015625 22.2734375 C-7.66894531 20.2421875 -7.66894531 20.2421875 -7.67578125 17.7734375 C-7.67835938 16.8865625 -7.6809375 15.9996875 -7.68359375 15.0859375 C-7.67199219 13.69375 -7.67199219 13.69375 -7.66015625 12.2734375 C-7.66789063 11.3453125 -7.675625 10.4171875 -7.68359375 9.4609375 C-7.68101562 8.5740625 -7.6784375 7.6871875 -7.67578125 6.7734375 C-7.67352539 5.95875 -7.67126953 5.1440625 -7.66894531 4.3046875 C-7.07926659 -0.32373419 -3.94552389 0.01538216 0 0 Z " fill="#FEFEFE" transform="translate(550.41015625,401.7265625)"/>
<path d="M0 0 C1.70512741 2.55769112 2.68063145 4.53999311 3.7265625 7.37890625 C4.0359375 8.21744141 4.3453125 9.05597656 4.6640625 9.91992188 C4.98117188 10.79197266 5.29828125 11.66402344 5.625 12.5625 C5.94984375 13.43841797 6.2746875 14.31433594 6.609375 15.21679688 C9 21.74079241 9 21.74079241 9 24 C3.39 24 -2.22 24 -8 24 C-5.90481079 15.72951627 -3.1829131 7.91325036 0 0 Z " fill="#040404" transform="translate(176,646)"/>
<path d="M0 0 C0.33 0 0.66 0 1 0 C1.33 4.95 1.66 9.9 2 15 C2.99 15.33 3.98 15.66 5 16 C3.68799596 17.35432675 2.35368596 18.68733482 1 20 C0.67 20 0.34 20 0 20 C0 13.4 0 6.8 0 0 Z " fill="#0B0B0B" transform="translate(294,405)"/>
<path d="M0 0 C1.99097846 2.98646769 2.94124926 5.59687262 4 9 C3.21625 8.979375 2.4325 8.95875 1.625 8.9375 C-0.98114961 8.81315937 -0.98114961 8.81315937 -3 10 C-2.01 6.7 -1.02 3.4 0 0 Z " fill="#0D0D0D" transform="translate(176,646)"/>
</svg>
